<svg width="30" height="30" viewBox="0 0 30 30" fill="none" xmlns="http://www.w3.org/2000/svg">
<path d="M21.25 27H6.25C5.25544 27 4.30161 26.5259 3.59835 25.682C2.89509 24.8381 2.5 23.6935 2.5 22.5V10.5C2.5 10.1022 2.3683 9.72064 2.13388 9.43934C1.89946 9.15804 1.58152 9 1.25 9C0.918479 9 0.600537 9.15804 0.366117 9.43934C0.131696 9.72064 0 10.1022 0 10.5L0 22.5C0 24.4891 0.65848 26.3968 1.83058 27.8033C3.00269 29.2098 4.5924 30 6.25 30H21.25C21.5815 30 21.8995 29.842 22.1339 29.5607C22.3683 29.2794 22.5 28.8978 22.5 28.5C22.5 28.1022 22.3683 27.7206 22.1339 27.4393C21.8995 27.158 21.5815 27 21.25 27ZM26.25 0H8.75C7.75544 0 6.80161 0.474106 6.09835 1.31802C5.39509 2.16193 5 3.30653 5 4.5V19.5C5 20.6935 5.39509 21.8381 6.09835 22.682C6.80161 23.5259 7.75544 24 8.75 24H26.25C27.2446 24 28.1984 23.5259 28.9017 22.682C29.6049 21.8381 30 20.6935 30 19.5V4.5C30 3.30653 29.6049 2.16193 28.9017 1.31802C28.1984 0.474106 27.2446 0 26.25 0ZM25.7375 3L18.3875 11.82C18.2713 11.9606 18.133 12.0722 17.9807 12.1483C17.8284 12.2245 17.665 12.2637 17.5 12.2637C17.335 12.2637 17.1716 12.2245 17.0193 12.1483C16.867 12.0722 16.7287 11.9606 16.6125 11.82L9.2625 3H25.7375ZM27.5 19.5C27.5 19.8978 27.3683 20.2794 27.1339 20.5607C26.8995 20.842 26.5815 21 26.25 21H8.75C8.41848 21 8.10054 20.842 7.86612 20.5607C7.6317 20.2794 7.5 19.8978 7.5 19.5V5.055L14.85 13.875C15.5531 14.7177 16.5062 15.191 17.5 15.191C18.4938 15.191 19.4469 14.7177 20.15 13.875L27.5 5.055V19.5Z" fill="#015696"/>
</svg>
