<svg width="25" height="25" viewBox="0 0 25 25" fill="none" xmlns="http://www.w3.org/2000/svg">
<path d="M12.5003 1.21001e-08C10.5829 -8.43464e-05 8.69125 0.440926 6.9716 1.28891C5.25195 2.1369 3.75042 3.36913 2.58318 4.89028C1.41594 6.41143 0.614273 8.18072 0.2402 10.0613C-0.133873 11.9418 -0.0703249 13.8832 0.425929 15.7353C0.922183 17.5873 1.83784 19.3004 3.10206 20.742C4.36628 22.1835 5.94518 23.3149 7.7166 24.0486C9.48802 24.7823 11.4045 25.0987 13.3177 24.9732C15.231 24.8477 17.0897 24.2838 18.7501 23.325C18.8995 23.2469 19.0315 23.1393 19.1383 23.0088C19.245 22.8783 19.3242 22.7276 19.3712 22.5657C19.4182 22.4038 19.4319 22.234 19.4116 22.0667C19.3913 21.8993 19.3373 21.7378 19.2529 21.5918C19.1686 21.4459 19.0555 21.3185 18.9207 21.2174C18.7858 21.1162 18.6319 21.0434 18.4681 21.0033C18.3044 20.9632 18.1342 20.9566 17.9679 20.984C17.8015 21.0113 17.6424 21.0721 17.5002 21.1625C15.5939 22.2631 13.3777 22.704 11.1953 22.4167C9.01295 22.1295 6.98633 21.1301 5.42976 19.5737C3.87319 18.0173 2.87365 15.9907 2.58615 13.8083C2.29866 11.626 2.73927 9.40968 3.83965 7.50322C4.94003 5.59676 6.6387 4.10665 8.67223 3.26399C10.7058 2.42132 12.9605 2.27319 15.0868 2.84255C17.2131 3.41192 19.0921 4.66697 20.4324 6.41307C21.7728 8.15917 22.4996 10.2988 22.5001 12.5V13.4375C22.5001 14.0177 22.2696 14.5741 21.8594 14.9843C21.4491 15.3945 20.8928 15.625 20.3126 15.625C19.7325 15.625 19.1761 15.3945 18.7658 14.9843C18.3556 14.5741 18.1252 14.0177 18.1252 13.4375V8.125C18.1252 7.79348 17.9935 7.47554 17.759 7.24112C17.5246 7.0067 17.2067 6.875 16.8752 6.875C16.5845 6.86853 16.3007 6.9636 16.0725 7.14384C15.8444 7.32408 15.6862 7.57821 15.6252 7.8625C14.7064 7.22697 13.6174 6.88287 12.5003 6.875C11.5593 6.86374 10.6304 7.08878 9.79893 7.52949C8.9674 7.97021 8.25974 8.61251 7.74076 9.39758C7.22178 10.1827 6.90807 11.0854 6.82835 12.0231C6.74863 12.9608 6.90546 13.9036 7.28447 14.765C7.66349 15.6264 8.25257 16.379 8.99776 16.9537C9.74296 17.5285 10.6205 17.9071 11.5499 18.0548C12.4793 18.2026 13.4309 18.1148 14.3176 17.7995C15.2043 17.4842 15.9977 16.9514 16.6252 16.25C17.2191 17.0191 18.0379 17.5841 18.9678 17.8663C19.8977 18.1485 20.8924 18.1339 21.8136 17.8245C22.7348 17.5151 23.5366 16.9264 24.1077 16.1401C24.6788 15.3539 24.9907 14.4092 25 13.4375V12.5C25 10.8585 24.6767 9.23303 24.0485 7.71646C23.4203 6.19989 22.4996 4.8219 21.3389 3.66116C20.1782 2.50043 18.8002 1.57969 17.2837 0.951506C15.7672 0.323322 14.1418 1.21001e-08 12.5003 1.21001e-08ZM12.5003 15.625C11.8822 15.625 11.278 15.4417 10.7642 15.0983C10.2503 14.755 9.84973 14.2669 9.61321 13.6959C9.3767 13.1249 9.31481 12.4965 9.43539 11.8903C9.55596 11.2842 9.85358 10.7273 10.2906 10.2903C10.7276 9.85325 11.2845 9.55562 11.8906 9.43505C12.4968 9.31447 13.1251 9.37635 13.6961 9.61287C14.2671 9.8494 14.7552 10.2499 15.0986 10.7638C15.4419 11.2777 15.6252 11.8819 15.6252 12.5C15.6252 13.3288 15.296 14.1237 14.7099 14.7097C14.1239 15.2958 13.3291 15.625 12.5003 15.625Z" fill="#060606"/>
</svg>
