<svg width="30" height="30" viewBox="0 0 30 30" fill="none" xmlns="http://www.w3.org/2000/svg">
<path d="M21.6667 18H8.33333C7.89131 18 7.46738 18.158 7.15482 18.4393C6.84226 18.7206 6.66667 19.1022 6.66667 19.5C6.66667 19.8978 6.84226 20.2794 7.15482 20.5607C7.46738 20.842 7.89131 21 8.33333 21H21.6667C22.1087 21 22.5326 20.842 22.8452 20.5607C23.1577 20.2794 23.3333 19.8978 23.3333 19.5C23.3333 19.1022 23.1577 18.7206 22.8452 18.4393C22.5326 18.158 22.1087 18 21.6667 18ZM21.6667 12H11.6667C11.2246 12 10.8007 12.158 10.4882 12.4393C10.1756 12.7206 10 13.1022 10 13.5C10 13.8978 10.1756 14.2794 10.4882 14.5607C10.8007 14.842 11.2246 15 11.6667 15H21.6667C22.1087 15 22.5326 14.842 22.8452 14.5607C23.1577 14.2794 23.3333 13.8978 23.3333 13.5C23.3333 13.1022 23.1577 12.7206 22.8452 12.4393C22.5326 12.158 22.1087 12 21.6667 12ZM28.3333 3H23.3333V1.5C23.3333 1.10218 23.1577 0.720644 22.8452 0.43934C22.5326 0.158035 22.1087 0 21.6667 0C21.2246 0 20.8007 0.158035 20.4882 0.43934C20.1756 0.720644 20 1.10218 20 1.5V3H16.6667V1.5C16.6667 1.10218 16.4911 0.720644 16.1785 0.43934C15.8659 0.158035 15.442 0 15 0C14.558 0 14.134 0.158035 13.8215 0.43934C13.5089 0.720644 13.3333 1.10218 13.3333 1.5V3H10V1.5C10 1.10218 9.8244 0.720644 9.51184 0.43934C9.19928 0.158035 8.77536 0 8.33333 0C7.89131 0 7.46738 0.158035 7.15482 0.43934C6.84226 0.720644 6.66667 1.10218 6.66667 1.5V3H1.66667C1.22464 3 0.800716 3.15804 0.488155 3.43934C0.175595 3.72064 0 4.10218 0 4.5V25.5C0 26.6935 0.526784 27.8381 1.46447 28.682C2.40215 29.5259 3.67392 30 5 30H25C26.3261 30 27.5979 29.5259 28.5355 28.682C29.4732 27.8381 30 26.6935 30 25.5V4.5C30 4.10218 29.8244 3.72064 29.5118 3.43934C29.1993 3.15804 28.7754 3 28.3333 3ZM26.6667 25.5C26.6667 25.8978 26.4911 26.2794 26.1785 26.5607C25.866 26.842 25.442 27 25 27H5C4.55797 27 4.13405 26.842 3.82149 26.5607C3.50893 26.2794 3.33333 25.8978 3.33333 25.5V6H6.66667V7.5C6.66667 7.89782 6.84226 8.27936 7.15482 8.56066C7.46738 8.84196 7.89131 9 8.33333 9C8.77536 9 9.19928 8.84196 9.51184 8.56066C9.8244 8.27936 10 7.89782 10 7.5V6H13.3333V7.5C13.3333 7.89782 13.5089 8.27936 13.8215 8.56066C14.134 8.84196 14.558 9 15 9C15.442 9 15.8659 8.84196 16.1785 8.56066C16.4911 8.27936 16.6667 7.89782 16.6667 7.5V6H20V7.5C20 7.89782 20.1756 8.27936 20.4882 8.56066C20.8007 8.84196 21.2246 9 21.6667 9C22.1087 9 22.5326 8.84196 22.8452 8.56066C23.1577 8.27936 23.3333 7.89782 23.3333 7.5V6H26.6667V25.5Z" fill="#015696"/>
</svg>
